<svg xmlns="http://www.w3.org/2000/svg" width="89" height="33" fill="none"><g fill="#333E48" clip-path="url(#a)"><path d="m69.295 8.32-.099.703s.597.286 1.377.286c.22 0 .678-.044.88-.111.703-.238 1.046-.711 1.046-1.295 0-.56-.442-.92-1.18-1.044l-.531-.083c-.42-.064-.772-.159-.772-.612 0-.389.394-.683.94-.683.308 0 .677.1.874.322l.013.274h.296l.064-.715a3.56 3.56 0 0 0-1.23-.202c-.953 0-1.738.357-1.738 1.286 0 .5.386.921 1.171 1.044l.643.1c.447.071.614.361.614.611 0 .532-.476.794-1.034.794-.343 0-.853-.178-1.06-.448l-.02-.227h-.254Zm-14.519 4.36c.03.028 1.222-.528 1.66-.084.51.517-.154 2.498-1.536 5.027-1.338 2.45-2.539 4.47-2.822 5.249-.287.786.326.5.974.194 1.282-.611 6.704-4.808 7.394-5.137.386-.187-2.732 3.263-5.794 6.25-3.513 3.414-6.902 7.221-11.766 7.221-5.104 0-7.356-3.859-7.356-3.859s1.24 4.566 7.64 4.566c7.33 0 12.863-7.143 16.869-11.455 3.247-3.49 6.065-6.57 8.055-7.663 1.99-1.091 4.17-.416 4.17-.416-3.102-1.78-6.958.806-10.063 3.359-2.574 2.12-7.013 4.923-7.3 5.137-.378.278 4.73-7.972 3.255-9.163-.54-.45-3.624.56-3.38.774ZM86.594 5.48v-.246h-1.218v.246c.261 0 .398.04.326.16-.065.106-.974 1.504-.974 1.504s-.802-1.298-.892-1.441c-.082-.135-.069-.234.36-.223v-.246H82.21v.246c.472-.011.51.108.622.274.112.167 1.227 1.894 1.227 1.894v.906c-.004.42-.034.46-.558.448v.246h2.046V9c-.532.016-.562-.024-.562-.44 0 0-.004-1.033 0-1.092 0 0 1.004-1.577 1.09-1.704.09-.13.163-.282.519-.282ZM43.73 8.547c0 .42-.026.464-.558.448v.25h1.506v-.25c-.532.016-.558-.028-.558-.448V6.152l3.037 3.169.476-.131V5.938c0-.42.026-.465.558-.449v-.25h-1.51v.25c.536-.016.558.028.558.449V8.15l-.15-.147-2.578-2.752-1.343-.012v.25c.532-.016.558.028.558.449l.004 2.609Zm6.297 0c-.009.42-.035.464-.558.452v.246h2.046v-.25c-.532.016-.557-.028-.557-.448V5.934c0-.42.021-.457.557-.453v-.246H49.47v.246c.523-.011.553.036.558.453v2.613Zm4.426-2.534c-.06-.127-.154-.281-.128-.42.021-.108.278-.112.506-.112v-.246h-2.123v.246c.205 0 .519.1.677.421l1.579 3.347h.489s1.085-2.326 1.634-3.494c.133-.258.197-.274.506-.274v-.246h-1.518v.246c.398 0 .544.044.544.16 0 .059-.055.174-.098.301l-1.038 2.327-1.03-2.256Zm4.817 2.633c0 .258-.099.337-.472.357v.246h3.487l.065-.909h-.258l-.128.473s-.588.071-1.767.071V7.312h.759c.12 0 .326.012.347.143.03.119.005.29.005.29h.274l.103-1.12h-.262a.769.769 0 0 1-.073.286c-.03.107-.12.107-.214.107h-.94V5.775a.58.58 0 0 1 .043-.21c.19 0 1.034-.008 1.27.012.142.012.296.035.3.127.013.127.026.298.026.298h.249l.064-.548.026-.215h-3.479v.246c.502.024.554.064.567.425v2.736h.008Zm4.898-.1c-.008.421-.034.465-.561.453v.246h2.046v-.25c-.532.016-.562-.028-.562-.448V5.704c0-.04.025-.135.025-.135a1.38 1.38 0 0 1 .395-.04c.515 0 .905.373.905.854 0 .532-.18.85-.948.917l-.017.107 1.377 1.842h1.23v-.246a.756.756 0 0 1-.458-.262l-1.18-1.39c.69-.123.957-.563.927-1.123-.034-.747-.854-.993-1.583-.993H63.6v.246c.528-.011.553.036.562.453v2.613h.008Zm10.32 0c-.008.421-.034.465-.557.453v.246h2.046v-.25c-.532.016-.558-.028-.558-.448V5.934c0-.42.026-.464.558-.449v-.25h-2.046v.246c.527-.011.549.036.557.453v2.613Zm5.22-2.918h.927c.36.008.296.04.343.334.013.08.013.067.013.15h.257l.086-.873h-4.13s.034.588.021.874h.262c.013-.147.021-.195.034-.298.081-.127.137-.17.296-.187h.965v2.923c-.009.42-.034.464-.558.452v.246h2.046V9c-.531.016-.557-.028-.557-.448V5.628h-.004Zm-42.64-.155v-.238h2.004v.238c-.227 0-.373.02-.433.056-.03.016-.052.052-.065.1-.03.118-.038 1.774-.038 1.774 0 .346.004.56.013.643a.899.899 0 0 0 .15.433.817.817 0 0 0 .369.266c.167.068.377.103.63.103.292 0 .528-.047.704-.135a.81.81 0 0 0 .373-.353c.073-.143.111-.417.111-.822 0 0 0-1.39-.004-1.497-.009-.238-.021-.385-.043-.433a.13.13 0 0 0-.073-.067c-.068-.032-.223-.052-.459-.056v-.238h1.471v.238c-.197 0-.321.012-.368.044a.17.17 0 0 0-.065.087c-.017.044-.034.203-.047.576-.008.342-.021 1.477-.021 1.477 0 .17-.013.346-.043.528a1.127 1.127 0 0 1-.167.469 1.18 1.18 0 0 1-.356.35c-.15.102-.335.182-.54.233-.211.052-.451.08-.726.08-.322 0-.622-.04-.9-.115a1.509 1.509 0 0 1-.498-.23 1.065 1.065 0 0 1-.296-.322.99.99 0 0 1-.125-.346 5.872 5.872 0 0 1-.017-.552s-.004-1.774-.013-1.989a.43.43 0 0 0-.038-.182c-.009-.02-.039-.044-.082-.072l-.407-.048Z"/><path d="M47.566 15.873c-.026-.003 1.166-3.247 2.213-3.462 1.11-.226.613 1.037.382 1.41-.159.258-.052.282.18.091.394-.322 1.317-1.322.81-1.81-.158-.155-.454-.25-.892-.25-1.154 0-2.706.73-4.229 3.938 0 0-1.492-.024-2.8.187-.01-.858-.533-1.418-1.52-1.418-1.646 0-3.945 1.549-5.138 3.458-1.192 1.91-.823 3.459.82 3.459 1.647 0 3.946-1.549 5.138-3.459.245-.389.42-.762.536-1.111.412-.052 1.51-.16 2.488-.095.077.003-1.085 2.862-1.861 4.272-.622 1.131-2.514 3.26-5.04 2.203-.52-.214-.48.08.321.33 1.094.341 3.119.623 5.216-1.727 1.253-1.406 2.955-5.007 2.955-5.007s3.72.278 4.362-2.486c-.008 0-.626 1.894-3.941 1.477Zm-9.428 4.745c-.93 0-1.055-1.163-.279-2.6.776-1.438 2.158-2.601 3.088-2.601.588 0 .854.464.777 1.171-.61.354-1.184.77-1.184.77-.065.048-.052.072.026.052l1.025-.23a4.902 4.902 0 0 1-.36.834c-.781 1.44-2.162 2.604-3.093 2.604Zm50.823 3.863s-1.128.767-2.616.584c-1.789-.218-4.246-2.501-4.83-3.014-.236-.21 3.933-1.083 4.813-2.874.523-1.068-.69-1.374-.69-1.374-.486 2.208-2.853 2.986-4.86 3.915 0 0-.841-.262-1.755.278-.377.222 3.479-7.655 4.062-8.691.03-.056-1.943.583-2.007.667-.146.19.077.079.017.305-.193.691-1.982 4.054-1.982 4.054-1.2 0-4.812 1.43-5.28 1.68-.472.25.704-1.485.249-1.751-.46-.266-.957-.195-2.02.055-.888.207-2.15.838-2.763 1.124-.06-.886-.643-1.45-1.694-1.45-1.84 0-4.414 1.732-5.748 3.872-1.334 2.136-.922 3.871.918 3.871s4.414-1.731 5.748-3.871c.386-.62.626-1.203.725-1.723.965-.576 3.17-1.422 3.341-1.152.27.417-2.814 5.694-3.38 6.694-.008.016.022.032.086.012.708-.202 1.574-.504 1.742-.83.789-1.524 3.56-5.749 6.253-5.292.37.063 1.51-.616 1.429-.401-.202.528-2.638 5.19-3.458 6.468-.188.293 1.566-.381 1.78-.763.785-1.39 1.823-2.1 2.403-2.1.656 0 3.384 3.07 6.33 3.07 2.21 0 3.325-1.307 3.187-1.363Zm-25.345.294c-1.038 0-1.18-1.302-.313-2.91.866-1.608 2.41-2.91 3.453-2.91.72 0 1.008.627.828 1.548-.532.44-1.004.873-1.004.873-.056.052-.047.068.026.032l.845-.405c-.09.27-.22.56-.382.862-.867 1.604-2.41 2.91-3.453 2.91Zm-46.405 2.89c-.035-.095-.069-.138-.146-.174-.103-.048-.31-.012-.33-.008 0 0-.425.127-.541.163-.009-.024-.017-.052-.026-.08a.184.184 0 0 0-.017-.043l.558-.171c.017-.008.21-.087.261-.183a.204.204 0 0 0 .03-.107.413.413 0 0 0-.021-.111c-.107-.302-.33-.568-.665-.794-.334-.227-.678-.342-1.02-.342-.108 0-.164.02-.224.076-.081.075-.107.27-.107.286v.524h-.081c-.026 0-.052 0-.082.004v-.524c0-.02-.026-.21-.107-.286-.06-.056-.116-.076-.223-.076-.343 0-.687.116-1.021.342-.335.226-.558.492-.665.794a.292.292 0 0 0-.021.111c0 .036.008.072.03.107.051.096.244.179.261.183 0 0 .455.139.558.167-.004.015-.013.027-.017.043l-.026.076-.54-.163c-.018-.004-.228-.044-.326.008-.078.036-.112.08-.146.175-.107.301-.095.639.034 1.004s.335.643.61.83c.085.06.14.075.226.064.112-.016.258-.16.27-.175 0 0 .28-.354.348-.445.013.008.026.02.039.028l.056.036c-.082.103-.344.436-.344.44-.008.012-.098.16-.098.262 0 .008 0 .02.004.028.013.08.047.123.133.183.279.186.626.278 1.042.278.416 0 .764-.096 1.042-.278.086-.056.12-.103.133-.183v-.028a.572.572 0 0 0-.098-.262s-.258-.33-.343-.436c.021-.012.038-.024.06-.036.013-.008.026-.02.038-.028.082.103.348.445.348.445.013.016.154.159.27.174.086.012.141-.003.227-.063.275-.187.48-.465.61-.83.137-.37.15-.707.047-1.004Zm-2.11-1.21a.59.59 0 0 1 .085-.23c.155-.195.36-.06.545.055.137.087.27.175.369.127l.043-.02-.009.048c0 .008-.004.012-.004.02 0 .095.12.178.244.266.133.095.279.198.279.325a.213.213 0 0 1-.056.135.685.685 0 0 1-.21.147s-.219.068-.292.087a.9.9 0 0 0-.283-.321c-.047-.032-.077-.04-.124-.032-.056.008-.137.083-.15.095l-.27.346-.04-.024c.13-.163.271-.345.271-.345.009-.016.056-.096.056-.147v-.016c-.009-.044-.026-.068-.073-.1a1.011 1.011 0 0 0-.386-.146c.004-.076.004-.27.004-.27Zm.424 1.465a.567.567 0 0 0-.176-.358l.155-.198a.292.292 0 0 1 .098-.064c.095-.027.129.044.176.167.03.076.06.155.12.183-.008.02-.017.035-.017.06 0 .047.017.098.034.15.017.06.035.107.035.143 0 .044-.018.072-.07.087-.038.012-.11.004-.123.004l-.236-.071c0-.016.004-.032.004-.048a.121.121 0 0 0 0-.055Zm-.416-.91c.141.004.227.012.227.104 0 .035-.03.099-.034.107 0 0-.086.115-.155.202a.724.724 0 0 0-.248-.051h-.009a.665.665 0 0 0-.253.047 8.444 8.444 0 0 0-.159-.202.298.298 0 0 1-.034-.107c0-.092.086-.1.227-.104.086-.003.176-.003.223-.047.039.047.13.052.215.052Zm-1.729.314a.684.684 0 0 1-.21-.147c-.15-.194.047-.337.223-.46.133-.096.262-.187.245-.286l-.009-.048.043.02c.099.048.232-.036.369-.127.184-.115.39-.25.54-.056a.58.58 0 0 1 .086.227v.27a.927.927 0 0 0-.386.147c-.047.031-.064.055-.073.099v.016c0 .055.043.135.056.147l.27.345-.043.028-.27-.346c-.013-.015-.094-.087-.15-.095-.047-.008-.077 0-.125.032a.9.9 0 0 0-.283.322l-.283-.088Zm.862.699-.236.071c-.008 0-.081.008-.12-.004-.051-.015-.068-.043-.068-.087 0-.036.013-.083.034-.143.017-.052.034-.103.034-.15a.097.097 0 0 0-.017-.06c.06-.028.09-.107.12-.183.047-.123.082-.194.176-.167a.293.293 0 0 1 .099.064l.154.198a.564.564 0 0 0-.167.306c-.009.036-.009.068-.009.103v.052Zm-.48 1.072a.673.673 0 0 1-.215.139c-.244.075-.33-.147-.403-.342-.055-.146-.111-.29-.218-.301l-.048-.008.035-.032c.081-.071.034-.214-.013-.365-.065-.199-.137-.421.111-.497a.717.717 0 0 1 .262-.004s.193.056.283.084a.77.77 0 0 0 .03.373c.017.052.039.076.077.095.052.024.163.008.185.004l.42-.127.013.04c-.202.06-.42.127-.42.127-.022.008-.12.056-.146.103-.022.04-.022.068-.005.12a.816.816 0 0 0 .24.345c-.06.08-.188.25-.188.246Zm.343-.5c-.081-.06-.137-.104-.137-.151 0-.016.008-.036.021-.056a.35.35 0 0 1 .099-.067l.227-.072c.09.159.253.274.446.31 0 .095-.008.214-.008.214a.344.344 0 0 1-.039.108c-.06.075-.133.035-.249-.04-.072-.044-.145-.091-.21-.08-.008-.067-.077-.119-.15-.166Zm1.579.71a.616.616 0 0 1 .077.235c0 .238-.253.246-.476.25-.168.004-.33.008-.378.099l-.021.04-.022-.04c-.051-.091-.21-.095-.377-.1-.223-.003-.472-.011-.472-.25 0-.087.069-.222.077-.234 0 0 .137-.174.185-.238.137.064.27.095.407.095.06 0 .09-.008.12-.04.043-.039.06-.142.06-.158v-.397h.052v.397c0 .02.017.123.06.159.034.031.064.04.12.04.137 0 .27-.032.408-.096.055.084.18.238.18.238Zm-.022-.71c-.069.047-.137.099-.146.162-.068-.012-.141.036-.214.08-.116.075-.189.115-.249.04-.026-.032-.039-.1-.043-.108v-.214a.644.644 0 0 0 .442-.306l.227.072c.009.004.073.04.099.067.013.02.021.036.021.056.005.047-.051.091-.137.15Zm1.201-.04.035.032-.052.008c-.111.015-.163.155-.219.301-.073.195-.159.413-.403.342a.624.624 0 0 1-.214-.14l-.19-.237a.816.816 0 0 0 .241-.346.186.186 0 0 0 .013-.063.115.115 0 0 0-.017-.06c-.026-.047-.129-.095-.146-.103 0 0-.219-.068-.416-.127l.013-.04.42.127c.021.004.133.02.184-.004.043-.02.06-.043.078-.095a.776.776 0 0 0 .03-.373c.085-.028.279-.084.279-.084a.714.714 0 0 1 .261.004c.245.076.176.298.112.497-.043.147-.09.286-.009.361Z"/><path d="M9.79 28.439c1.261 1.485 2.93 2.8 4.976 3.903l.146.08.145-.08c2.046-1.104 3.715-2.418 4.976-3.903l.356-.44a12.389 12.389 0 0 0 2.093-4.07l.013-.056c.043-.143.081-.29.12-.437l.034-.139c.09-.38.163-.75.223-1.111v.02c.142 1.246.6 1.826 1.442 1.826.626 0 1.003-.223 1.162-.683.013-.036.03-.087.056-.151.12-.322.317-.866.317-1.167v-.072c.004-.262.004-.556-.33-.65a.296.296 0 0 0-.043-.033c.116-.063.206-.119.262-.166.145-.123.3-.445.48-.818.103-.21.206-.43.309-.604.004-.008.013-.024.025-.04.743-1.238.966-2.342.627-3.108 0-.004-.005-.008-.005-.012-.004-.008-.012-.016-.017-.024-.201-.544-.424-.953-1.304-1.533-.377-.246-.737-.448-1.025-.611-.296-.167-.544-.306-.695-.429.352.04.69.131 1.026.222.454.123.926.25 1.432.25.965 0 1.454-.31 1.849-.555.244-.155.433-.274.673-.274.03 0 .056-.02.06-.048.005-.028-.008-.056-.038-.063-.112-.04-.232-.135-.365-.243-.249-.198-.579-.456-1.12-.583 0-.008-.004-.016-.004-.024-.077-.322-.257-.64-.527-.941.248.055.562.115.823.115.425 0 .708-.127.982-.25.073-.032.146-.064.224-.095.047-.02.077-.064.072-.108a.118.118 0 0 0-.081-.103c-.219-.067-.48-.294-.73-.512-.27-.234-.522-.453-.771-.536a1.607 1.607 0 0 0-.51-.075 4.66 4.66 0 0 0-.245.008c-.073.003-.146.007-.215.007-.085 0-.158-.007-.223-.02-.038-.007-.051-.015-.051-.015-.004-.004-.009-.016-.009-.028-.043-.127-.111-.23-.497-.282 1.44-.425 2.44-.913 3.05-1.481.694-.655.784-1.346.789-1.874v-.075a1.37 1.37 0 0 0-.116-.445c-.137-.667-.494-1.295-.742-1.731a3.753 3.753 0 0 1-.245-.469c-.03-.083-.064-.174-.094-.266-.137-.38-.275-.77-.446-1-.129-.175-.425-.39-.686-.58a5.28 5.28 0 0 1-.408-.318.063.063 0 0 0-.077-.008.055.055 0 0 0-.03.068c.03.095 0 .175-.039.262-.03.075-.064.15-.064.242 0 .103.081.222.159.334.038.055.102.147.107.182-.03-.004-.103-.063-.163-.107-.142-.107-.34-.258-.584-.286-.051-.004-.098-.012-.145-.016.115-.182.171-.397.171-.563 0-.18.043-.29.09-.421l.017-.052a.11.11 0 0 0-.051-.13.13.13 0 0 0-.15.011s-.017.016-.095.016c-.064 0-.145-.012-.227-.02a2.27 2.27 0 0 0-.279-.024c-.193 0-.587.111-.849.358-.004.003-.004.003-.004.007l-.005.004c-.15.143-.175.215-.175.394 0 .349.15.615.351.988.103.183.22.393.335.651.343.747.755.846 2.11 1.18.099.023.202.047.313.075.082.02.163.044.24.071.052.572-.175 1.231-.596 1.72-.703.817-1.767 1.242-2.8 1.655l-.155.06.493-.421c.28-.242.335-.5.378-.707.03-.147.056-.262.146-.337.291-.25.549-.703.664-1.02.082-.223-.025-.62-.124-.973-.043-.16-.09-.326-.09-.394 0-.043-.03-.083-.073-.103-.043-.02-.094-.008-.133.02a1.332 1.332 0 0 1-.283.151c-.266.12-.626.282-.88.631-.068-.262-.231-.508-.484-.726-.27-.23-.716-.385-1.107-.524-.266-.092-.519-.183-.617-.262a.124.124 0 0 0-.133-.02c-.043.02-.073.06-.073.103 0 .087-.035.266-.069.457-.051.281-.111.603-.111.853 0 .131.055.278.184.493.004.007.009.011.013.02.073.075.154.166.24.273.202.31.412.651.412.965 0 1.052-.896 1.588-1.789 1.656a3.349 3.349 0 0 1-.279.012c-.96 0-1.42-.397-1.544-.532a.468.468 0 0 0-.072-.346.473.473 0 0 0-.3-.194h-.01l.322-1.33.206-.814c.009-.028 0-.056-.017-.08a.106.106 0 0 0-.073-.043c-.236-.032-.476-.072-.708-.108-.42-.067-.853-.139-1.29-.166-.014 0-.026 0-.035.004l-.656.123-.056.734c-.163-.008-.326-.016-.489-.02l.043-.937a.092.092 0 0 0-.03-.071.111.111 0 0 0-.077-.032c-.343-.012-.69-.016-1.03-.016-.339 0-.686.004-1.03.016a.112.112 0 0 0-.076.032.092.092 0 0 0-.03.071l.043.937c-.155.004-.314.012-.468.02l-.056-.734-.678-.123c-.012-.004-.02-.004-.034-.004-.433.031-.87.099-1.29.166-.232.036-.477.076-.709.108a.105.105 0 0 0-.09.123l.206.81.322 1.33h-.004a.461.461 0 0 0-.36.576c.06.226.261.393.484.393.03 0 .056-.004.082-.008l.102-.016c-.055.031-.115.071-.184.11-.249.064-.57.116-.982.116-1.154 0-1.995-1.012-1.995-1.441 0-.199.035-.385.073-.58.047-.242.095-.516.095-.877 0-.282-.073-.485-.142-.667-.094-.25-.172-.469-.043-.846a.056.056 0 0 0-.026-.068.063.063 0 0 0-.077.008c-.296.254-.347.298-.875.477-.497.167-.982.615-1.034 1.111a1.359 1.359 0 0 0-.347-.293c-.249-.14-.493-.16-.708-.179-.184-.016-.347-.032-.489-.111a.064.064 0 0 0-.081.016c-.022.024-.017.055.008.08.146.126.146.793.146 1.043 0 .294.408.632.682.858.039.032.073.063.107.087.052.044.1.111.16.195.17.246.424.6 1.166.94-1.493-.126-3.625-1.099-4.234-2.818-.043-.127-.03-.238.039-.33.116-.15.386-.242.703-.242.365 0 .734.131.734.381 0 .024.013.044.038.052a.071.071 0 0 0 .07-.012.67.67 0 0 0 .192-.746.424.424 0 0 0-.133-.18c.15-.039.296-.11.42-.186.03-.012.31-.143.326-.15.33-.207.794-.727.794-1.108 0-.056.06-.147.129-.247.128-.194.304-.456.304-.83 0-.313-.236-.897-.802-.897-.266 0-.399.068-.515.123a.788.788 0 0 1-.433.104.125.125 0 0 0-.116.075c-.017.044 0 .095.039.127.309.226.506.489.6.806-.214.155-.39.234-.519.234-.287 0-1.046 0-1.707.378-.665.377-1.05 1.437-1.256 2.005l-.005.008a2.26 2.26 0 0 1-.291.555 1.178 1.178 0 0 0-.223.469c-.15.643-.043 1.965 1.316 2.839 1.068.687 2.317.83 3.179.83.128 0 .257-.004.386-.008-.382.17-.948.4-1.437.556-.223.071-.502.146-.768.214-.485.127-.982.258-1.231.4-.253.148-.566.481-.81.747-.134.143-.245.266-.327.334-.017.016-.025.044-.017.063.009.024.035.036.06.036.412 0 .55 0 .901.068.094.02.133.04.172.06.038.02.081.043.154.043.069 0 .167-.02.343-.068-.184.171-.394.449-.442.862h-.407c-.386 0-.678.183-.94.345-.223.14-.437.274-.677.274a.121.121 0 0 0-.12.1c-.009.055.03.107.09.123.171.043.446.206.733.377.532.322 1.193.718 1.797.718.57 0 .824-.095 1.008-.166a.785.785 0 0 1 .318-.072c.099 0 .223.02.356.04.176.028.373.056.575.056h.077c-1.124.675-2.17 1.413-2.565 2.287-.382.853.038 1.826.266 2.35.043.1.081.187.103.246.12.361.12 1.017.12 1.263 0 .425.377.901.755 1.314-.18.262-.24.631-.18 1.16.051.468.18.738.506 1.048a1.333 1.333 0 0 0 .266.214c.004.004.008.004.013.008a1.696 1.696 0 0 0 1.582.028s.005 0 .005-.004c.004-.004.008-.004.012-.008h.005a.973.973 0 0 0 .253-.207c.433-.413.639-1.004.639-1.905 0-.036 0-.068-.004-.104.055.342.124.691.21 1.049l.034.138c.039.147.077.29.12.437l.013.052a12.39 12.39 0 0 0 2.093 4.07l.37.476Zm16.278-26.78a.87.87 0 0 1-.193.524c-.51-.068-.747-.21-.862-.366a.621.621 0 0 1-.035-.286v-.008c.202-.17.498-.258.644-.258.073 0 .163.012.248.02.086.012.172.02.254.024a.992.992 0 0 0-.056.35Zm-21.4-.338c.112-.024.19-.064.262-.1a.751.751 0 0 1 .4-.095c.39 0 .561.445.561.671 0 .31-.15.532-.27.711-.09.131-.163.246-.163.365 0 .127-.142.433-.399.691.12-.417.245-.953.094-1.477a1.727 1.727 0 0 0-.484-.766Zm-.05 2.783c-.005.004-.014.008-.022.012.004-.004.013-.008.021-.012Zm15.428 10.093s0 .004 0 0l-1.3.004c-.069-.234-.15-.365-.476-.635 0-.008.004-.012.004-.02 0-.5.155-1.104.322-1.588.013.016.026.035.043.051.523.644 1.394 1.723 1.407 2.188Zm-3.552-6.4-.352-.02c-.133-.016-.235-.143-.227-.298.004-.15.116-.274.253-.278h.005c.042-.004.351.016.373.02l.043.004c.077.004.158.008.248.016l.155.012.227.016.33.031c.133.012.253.024.373.044a12.061 12.061 0 0 1 .407.056l.4.063c.064.012.12.052.159.103a.277.277 0 0 1 .034.227c-.034.135-.155.238-.27.238-.013 0-.026 0-.043-.004l-.373-.06a3.474 3.474 0 0 0-.24-.031c-.048-.008-.1-.012-.146-.02-.116-.016-.24-.028-.36-.04l-.297-.028-.248-.02a22.253 22.253 0 0 1-.15-.011c-.086-.008-.172-.012-.245-.016l-.056-.004Zm-5.606-1.902-.18-.707c.202-.028.403-.06.6-.091.382-.064.777-.127 1.167-.159l.099.802a.107.107 0 0 0 .116.087c.403-.027.815-.047 1.222-.06.03 0 .056-.011.077-.03a.092.092 0 0 0 .03-.072l-.043-.937a35.3 35.3 0 0 1 1.828 0l-.043.937c0 .027.008.051.03.071.021.02.047.032.077.032.407.012.815.032 1.222.06a.11.11 0 0 0 .116-.088l.099-.802c.39.032.785.095 1.166.159.198.032.4.063.601.091l-.18.707-.326 1.338-.18-.028a19.026 19.026 0 0 0-.258-.036c-.051-.008-.102-.011-.154-.02a11.388 11.388 0 0 0-.386-.043l-.236-.024-.33-.028-.155-.012a3.106 3.106 0 0 0-.257-.016l-.399-.02h-.026s-.043-.003-.115-.003l-.288-.008c-.189-.008-.42-.012-.669-.012l-.214-.004-.215.004c-.249.004-.48.004-.669.012l-.287.008c-.073 0-.112.004-.112.004h-.03l-.399.02c-.081.003-.167.011-.257.015l-.155.012-.236.016-.33.032a9.995 9.995 0 0 0-.381.044c-.052.008-.103.011-.155.02-.094.011-.18.023-.257.035l-.185.032-.343-1.338Zm4.89 1.874h-.034c-.18-.008-.404-.008-.64-.012-.072 0-.145 0-.218-.004-.073 0-.146 0-.215.004-.236.004-.459.004-.639.012h-.034l-.373.012c-.129-.004-.24-.127-.253-.274a.293.293 0 0 1 .077-.222.239.239 0 0 1 .141-.072h.009c.081-.012.412-.016.412-.016h.004c.184-.008.416-.008.66-.012l.21-.004.215.004c.245.004.476.004.665.012h.039a.51.51 0 0 0-.103.286.447.447 0 0 0 .077.286Zm-4.62.266c-.128.024-.27-.083-.308-.234a.277.277 0 0 1 .034-.227.247.247 0 0 1 .154-.103l.4-.067c.076-.012.158-.024.248-.036.051-.008.103-.012.159-.02.12-.016.244-.028.373-.044l.326-.031.231-.016.155-.012c.09-.008.176-.012.253-.016l.043-.004a.473.473 0 0 0-.073.294.504.504 0 0 0 .111.282h-.034c-.077.004-.159.008-.244.016l-.15.011-.224.016-.317.032c-.12.012-.245.024-.36.04-.052.008-.103.012-.15.02-.086.012-.168.02-.24.031l-.387.068Zm.575.198a.1.1 0 0 0 .043-.04l.039-.055a7.74 7.74 0 0 1 .493-.06l.317-.031.223-.016.155-.012c.085-.008.167-.012.24-.016l.386-.02h.03s.039-.004.103-.004l.283-.008c.176-.008.399-.008.63-.011.073 0 .146 0 .215-.004.073 0 .146 0 .219.004.236.003.454.003.63.011l.28.008c.06 0 .093.004.098.004h.013c.043.052.103.123.188.219.086.23.125.508.125.83 0 .937-.54 1.433-1.06 1.913-.506.465-.982.905-.982 1.696a.76.76 0 0 0 .746.754c.129 0 .245-.04.335-.115a.062.062 0 0 0 .021-.044.062.062 0 0 0-.021-.043c-.082-.072-.167-.163-.219-.413.223-.096.48-.123.734-.147.317-.032.613-.064.806-.227.67-.571.733-1.052.79-1.437.025-.19.05-.357.14-.504.074.13.13.258.19.393.115.262.235.536.51.89-.172.472-.343 1.087-.378 1.62a2.466 2.466 0 0 0-1.038-.207c-.27 0-.561.032-.917.103-.743.147-1.536.73-2.235 1.247-.24.178-.472.345-.69.492l-.005.004a3.256 3.256 0 0 1-.579.326l-.326.09c-.017 0-.039.005-.056.005-.025 0-.047 0-.068-.004-.035-.12-.069-.238-.108-.357 0-.004 0-.004-.004-.008a13.44 13.44 0 0 0-.219-.655c0-.005 0-.005-.004-.008-.926-2.561-2.106-3.558-2.6-3.884 2.523-.71 6.4-1.143 6.443-1.147a.084.084 0 0 0 .03-.008c.15-.055.206-.56.163-.766-.043-.219-.184-.342-.386-.342-.6 0-2.252.886-2.462 1-.244.033-2.162.29-2.912.461v-.099c.519-.826 1.638-1.374 1.651-1.378Zm6.421 5.968h-2.183c-.026-.032-.056-.064-.086-.095.395-.239.777-.362 1.103-.362.463 0 .853.151 1.166.457Zm-6.674 0h-1.36c.176-.322.46-.719.837-1.167.18.341.356.73.523 1.167Zm-1.2-5.205a2.977 2.977 0 0 0-.43.532.122.122 0 0 0-.017.055v.243c-.12.031-.232.063-.339.09a.268.268 0 0 1 .06-.067c.017-.015.026-.035.017-.055-.004-.02-.021-.036-.047-.044a1.238 1.238 0 0 1-.206-.067.712.712 0 0 1-.206-.123c.28-.219.708-.405 1.167-.564Zm-3.51 1.846c.687-.457 1.068-.584 1.45-.671-.171.19-.39.496-.39 1.088 0 .194.043.37.129.54-.498.214-.717.246-.803.246-.248 0-.501-.13-.742-.262a4.372 4.372 0 0 0-.364-.179c-.03-.011-.06-.023-.099-.031.335-.35.605-.588.82-.731Zm-2.612 7.949c.065-.473.6-1.481 2.14-2.839a.847.847 0 0 0-.115.143c-.408.568-.339 1.405-.313 1.648.051.4.188.782.394 1.072.056.08.116.15.18.21-.133-.016-.261-.08-.403-.143-.184-.087-.377-.179-.605-.179-.223 0-.351.024-.493.048-.15.024-.309.052-.605.052l-.18-.012Zm2.578.174c-.3-.21-.553-.69-.622-1.246-.107-.882.18-1.37.27-1.497a2.91 2.91 0 0 1 .352-.37v3.113Zm-1.51 3.042c.155.067.3.147.434.234a1.4 1.4 0 0 1 .124.091.106.106 0 0 0 .004.052c.077.214.116.504-.137.69a.692.692 0 0 1-.416.148.426.426 0 0 1-.245-.068.958.958 0 0 0 .146-.182c.18-.278.262-.663.09-.965Zm.7 2.27a1.515 1.515 0 0 1-.408.136 1.4 1.4 0 0 1-.922-.155c-.232-.163-.49-.35-.326-.866.056-.174.184-.281.39-.325a.412.412 0 0 0 .086.179c.107.127.292.198.489.198.193 0 .39-.067.566-.194a.677.677 0 0 0 .287-.552c.18.222.25.413.25.484 0 .024 0 .052.004.087.012.247.034.755-.417 1.009Zm-.468-4.144-.06-.016c-.176-.048-.236-.068-.253-.15.326 0 .742-.013.94-.184.094-.079.166-.178.244-.282.077-.103.167-.222.287-.333.039.024.077.044.116.064.004.786.03 1.651.154 2.576-.249-1.008-1.154-1.596-1.428-1.675ZM6.736 14.2v1.08c-1.866 1.5-2.672 2.724-2.81 3.41-.707-.19-.964-.861-.964-1.445 0-.774 1.574-1.925 2.84-2.854a.106.106 0 0 0 .025-.151c-.035-.048-.107-.064-.163-.036a1.137 1.137 0 0 1-.554.123c-.184 0-.368-.028-.536-.055-.141-.02-.278-.044-.394-.044-.172 0-.288.044-.408.091-.176.068-.394.147-.913.147-.532 0-1.158-.377-1.665-.683a8.15 8.15 0 0 0-.454-.262c.154-.06.291-.147.433-.234.253-.159.489-.306.802-.306h.335c.008.485.175.683.313.846.103.119.176.206.176.405 0 .031.017.063.042.083.026.02.065.032.1.028.03-.004.771-.111 1.269-.671.111-.123.266-.314.45-.532.052-.064.107-.131.167-.199.365.088.61.068.738-.06.082-.079.082-.17.082-.186a.117.117 0 0 0-.095-.103s-.197-.044-.36-.222a.664.664 0 0 1-.116-.167 1.183 1.183 0 0 1-.146-.492c.185-.004.562-.004.85.051.073.016.133.032.184.052.112.043.223.103.343.167.27.143.55.29.862.29.18 0 .472-.084.867-.25.081.11.167.202.249.285.107.111.201.21.231.306a.123.123 0 0 0 .133.08.118.118 0 0 0 .103-.1c.034-.06.249-.226.403-.345.373-.29.64-.509.712-.695.305.301.596.659.871 1.068.039.063.073.127.112.194-.357.413-.764.937-.987 1.39H6.736v-.004Zm-1.81-1.473.133-.159c.094.087.193.147.275.183a.39.39 0 0 1-.125.016 1.19 1.19 0 0 1-.283-.04Zm5.164 11.88c-.06-.08-.124-.167-.124-.27-.004-.088-.004-.326.073-.402.013-.015.03-.02.047-.02.039 0 .069.009.086.028.03.032.013.088.013.088l-.009.035h.039c.064 0 .12-.075.124-.158 0-.048-.021-.203-.322-.223v-.012c0-.162-.06-.31-.145-.365l-.018-.012-.017.012c-.086.052-.146.199-.146.365v.012c-.3.02-.321.175-.321.223 0 .083.06.159.124.159h.039l-.009-.036s-.013-.056.013-.088c.017-.02.043-.027.086-.027.017 0 .034.008.047.02.077.075.077.313.073.4 0 .104-.064.191-.124.27-.048.064-.086.116-.086.167v.016h-.596v-1.953c0-.092.077-.235.18-.326l.047-.036c.068-.043.124-.043.154-.008h3.084c.03-.02.06-.027.086-.027.039 0 .082.023.082.091v1.938l-.357.321h-.579v-.016c0-.051-.038-.107-.085-.166-.06-.08-.125-.167-.125-.27-.004-.088-.004-.326.073-.402.013-.015.03-.02.047-.02.039 0 .069.009.086.028.03.032.013.088.013.088l-.009.035h.04c.063 0 .12-.075.123-.158 0-.048-.021-.203-.321-.223v-.012c0-.162-.06-.31-.146-.365l-.017-.012-.017.012c-.086.052-.146.199-.146.365v.012c-.3.02-.322.175-.322.223 0 .083.06.159.125.159h.038l-.008-.036s-.013-.056.012-.088c.018-.02.043-.027.086-.027.017 0 .035.008.047.02.078.075.078.313.073.4 0 .104-.068.191-.124.27-.047.064-.086.116-.086.167v.016h-.815v-.016c0-.051-.039-.103-.086-.166Zm4.822 7.182c-1.948-1.072-3.53-2.335-4.723-3.76l4.723-4.768 4.722 4.768c-1.192 1.425-2.775 2.692-4.723 3.76Zm.874-10.835c-.06-.08-.124-.167-.124-.27-.004-.088-.004-.326.073-.401.013-.016.03-.02.047-.02.039 0 .069.008.086.028.03.031.013.087.013.087l-.009.036h.039c.064 0 .12-.076.124-.16 0-.047-.021-.202-.322-.221v-.012c0-.167-.055-.31-.145-.366l-.017-.011-.018.011c-.085.056-.145.199-.145.366v.012c-.3.02-.322.174-.322.222 0 .083.06.159.124.159h.039l-.009-.036s-.013-.056.013-.087c.017-.02.043-.028.086-.028.017 0 .034.008.047.02.077.075.077.313.073.4 0 .104-.069.191-.124.27-.047.064-.086.116-.086.168v.015h-.815v-.015c0-.052-.039-.108-.086-.167-.06-.08-.124-.167-.124-.27-.005-.088-.005-.326.073-.401.013-.016.03-.02.047-.02.038 0 .069.008.086.028.03.031.012.087.012.087l-.008.036h.039c.064 0 .12-.076.124-.16 0-.047-.022-.202-.322-.221v-.012c0-.167-.056-.31-.146-.366l-.017-.011-.017.011c-.09.056-.146.199-.146.366v.012c-.3.02-.322.174-.322.222 0 .083.06.159.125.159h.039l-.01-.036s-.012-.056.014-.087c.017-.02.043-.028.086-.028.017 0 .034.008.047.02.077.075.077.313.073.4 0 .104-.065.191-.125.27-.047.064-.085.116-.085.168v.015h-.597v-1.953c0-.091.078-.234.18-.326l.048-.035c.068-.044.124-.044.154-.008h3.084c.03-.02.06-.028.086-.028.038 0 .081.024.081.091v1.938l-.356.321h-.579v-.015c0-.052-.038-.108-.085-.167Zm5.263 3.518-.356.321h-.579v-.016c0-.051-.038-.107-.085-.166-.06-.08-.125-.167-.125-.27-.004-.088-.004-.326.073-.401.013-.016.03-.02.047-.02.039 0 .069.008.086.027.03.032.013.088.013.088l-.009.035h.039c.064 0 .12-.075.124-.158 0-.048-.021-.203-.321-.223v-.012c0-.162-.06-.31-.146-.365l-.017-.012-.017.012c-.086.056-.146.199-.146.365v.012c-.3.02-.322.175-.322.223 0 .083.06.159.124.159h.039l-.009-.036s-.012-.056.013-.088c.017-.02.043-.027.086-.027.017 0 .034.008.047.02.077.075.077.313.073.4 0 .104-.064.191-.124.27-.047.064-.086.116-.086.167v.016h-.815v-.016c0-.051-.039-.107-.086-.166-.06-.08-.124-.167-.124-.27-.005-.088-.005-.326.073-.401.013-.016.03-.02.047-.02.039 0 .069.008.086.027.03.032.013.088.013.088l-.009.035h.039c.064 0 .12-.075.124-.158 0-.048-.021-.203-.322-.223v-.012c0-.162-.06-.31-.146-.365l-.017-.012-.017.012c-.086.052-.146.199-.146.365v.012c-.3.02-.321.175-.321.223 0 .083.06.159.124.159h.039l-.009-.036s-.013-.056.013-.088c.017-.02.043-.027.086-.027a.07.07 0 0 1 .047.02c.077.075.077.313.073.4 0 .104-.065.191-.125.27-.047.064-.085.116-.085.167v.016h-.597v-1.953c0-.092.078-.235.18-.326l.048-.036c.068-.043.124-.043.154-.008h3.084c.03-.02.06-.027.086-.027.038 0 .081.023.081.09v1.939Zm1.12-1.668-7.258-7.33-7.257 7.33c-.305-1.43-.33-2.744-.33-3.88v-4.184h3.86a3.898 3.898 0 0 0-.502.627l-.034.052 2.393 1.163.03-.031c.013-.012 1-1.057 1.905-1.807h5.031c-.051.262-.159.472-.309.611-.09-.067-.193-.119-.291-.17-.176-.092-.343-.179-.438-.33a.112.112 0 0 0-.077-.051.113.113 0 0 0-.095.02 1.488 1.488 0 0 0-.403.377s0 .004-.004.004v.004a.723.723 0 0 0-.103.226.359.359 0 0 0 .004.202l.013.036c.005.008.009.02.017.032.069.127.223.25.46.393.222.135.591.222.943.222.583 0 1.025-.234 1.244-.647.09.798.369 3.168 1.312 3.752.009.008.022.008.035.008.013 0 .021-.004.034-.008.052-.028.103-.06.154-.087-.012 1.036-.068 2.203-.334 3.466Zm-2.634-7.294c-.223.199-.463.298-.609.298a.528.528 0 0 1-.373-.159l-.026-.047c-.056-.151.06-.338.318-.54.124.143.296.23.45.31.086.043.167.087.24.138Zm1.244-4.637c.185.012.326.063.485.119.227.08.48.17.918.17.283 0 .605-.13.982-.404.365.218.686.425.952.611-.03.016-.06.032-.09.052-.317.174-.643.357-1.034.357-1.205.004-2.007-.591-2.213-.905Zm3.71 11.697c-.257 0-.446-.151-.57-.306.073-.091.184-.19.334-.298.09.21.206.457.416.604h-.18Zm.995-.727c0 .401-.06.548-.407.623-.322-.008-.459-.266-.613-.63a2.032 2.032 0 0 0-.082-.18c.206-.008.365-.067.506-.123.047-.02.095-.035.142-.051l.086-.024a.588.588 0 0 1 .18-.016h.013c.115.008.175.266.175.401Zm.498-3.323c.588-.278.922-.6 1.094-.921-.06.563-.309 1.227-.738 1.937-.013.02-.021.032-.026.044a8.87 8.87 0 0 0-.317.62c-.155.317-.313.65-.425.742-.073.063-.283.174-.51.29l-.022.011c-.012.005-.021.005-.034.009-.009.003-.017.003-.026.007l-.043.012-.021.008-.043.016c-.004.004-.013.004-.017.008-.004.004-.013.004-.017.008l-.043.016a1.18 1.18 0 0 1-.45.107.865.865 0 0 1-.172-.016.127.127 0 0 0-.133.06c-.026.044-.013.1.026.135l.021.024c0 .004.005.004.005.007.004.009.012.016.017.024 0 .004.004.004.004.008.009.012.013.024.021.036 0 .004.005.004.005.008.004.012.012.02.017.032 0 0 0 .004.004.004a2.352 2.352 0 0 0-.334.266 1.545 1.545 0 0 1-.18-.62c0-.19 0-.548 1.286-1.469a.106.106 0 0 0 .034-.139.125.125 0 0 0-.111-.063c-.009 0-.017 0-.03.004-.094.02-.184.031-.27.031-.24 0-.36-.079-.4-.115a1.912 1.912 0 0 1-.124-.135 2.815 2.815 0 0 0-.377-.369c.082-.036.167-.083.266-.135.171-.091.369-.198.549-.25.159-.048.249-.052.395-.064.201-.011.471-.031 1.093-.162.005-.008.018-.012.026-.016Zm-1.098-1.652c.15.159.287.298.412.421.429.433.665.671.643.997a.324.324 0 0 0-.051.027c-.592.123-.854.143-1.043.155-.154.012-.261.016-.45.072-.202.06-.412.17-.596.27-.163.087-.348.186-.425.186a.121.121 0 0 0-.12.092c-.013.051.017.103.069.127.206.083.39.29.523.44a.776.776 0 0 0 .536.318c-.562.282-1.154.766-1.398 1.405.09-.873.103-1.69.103-2.43.42-.337.707-.766.707-1.44 0-.616-.334-1.271-.6-1.8-.039-.07-.073-.142-.107-.21v-.254c.347.358.613.576.875.786.283.227.549.445.922.838Zm-.06-4.423a.909.909 0 0 0 .279-.222c.06.071.107.139.154.214-.154 0-.3.004-.433.008Zm3.989-1.116c-.275.123-.51.227-.875.227-.476 0-1.175-.215-1.184-.219-.056-.015-.116.004-.141.048a.103.103 0 0 0 .021.139c.386.33.643.69.746 1.056-.021-.004-.038-.004-.06-.008a19.11 19.11 0 0 0-1.788-.139 2.207 2.207 0 0 0-.258-.377.793.793 0 0 0 .082-.306c0-.135.086-.313.33-.428a.11.11 0 0 0 .064-.084.111.111 0 0 0-.038-.1c-.035-.027-.077-.067-.897-.067-.188 0-.369.068-.523.143a18.262 18.262 0 0 0-.884-.575c.138-.108.262-.219.374-.318.163-.143.33-.29.399-.314a.114.114 0 0 0 .077-.127c-.009-.051-.06-.091-.12-.091-.176 0-.408-.127-.648-.266-.347-.195-.738-.413-1.197-.413-.433 0-.72.06-.973.111-.202.04-.374.076-.588.076-.274 0-.58-.16-.733-.314a.333.333 0 0 1-.082-.115c.12.035.373.087.948.087 1.304 0 2.282-1.068 2.282-2.02 0-.608-.468-1.228-.862-1.645-.065-.11-.15-.266-.15-.373 0-.23.055-.54.107-.814a6.87 6.87 0 0 0 .051-.298c.137.068.318.128.51.195.37.127.79.274 1.026.476.36.31.506.687.416 1.069l-.004.023c-.013.06.025.12.09.135a.122.122 0 0 0 .146-.083l.004-.02c.159-.62.635-.834.982-.989l.167-.075c.018.075.039.159.069.254.077.29.189.683.129.846-.108.298-.348.71-.6.925-.151.127-.185.298-.22.46-.038.195-.081.398-.304.584l-1.034.89a.109.109 0 0 0-.017.146.128.128 0 0 0 .154.04c.266-.115.537-.226.824-.341 1.06-.421 2.153-.858 2.895-1.72.412-.48.656-1.12.656-1.703.803.358 1.253.985 1.287 1.45v.059c0 1.322-.742 2.394-4.336 3.327-.06.016-.095.068-.086.123.009.056.06.1.12.1.927 0 .96.103.974.154.026.08.064.163.24.199.086.016.171.024.274.024.078 0 .155-.004.228-.008.073-.004.154-.008.231-.008.163 0 .296.02.43.063.2.068.445.278.686.489.197.159.394.325.583.44.004 0 .004 0 0 0Z"/></g><defs><clipPath id="a"><path fill="#fff" d="M.21.88h88.788v31.247H.21z"/></clipPath></defs></svg>